<svg width="20" height="20" viewBox="0 0 20 20" fill="none" xmlns="http://www.w3.org/2000/svg">
<path d="M18 11.9998H2V3.99976C2 3.73454 2.10536 3.48019 2.29289 3.29265C2.48043 3.10511 2.73478 2.99976 3 2.99976H17C17.2652 2.99976 17.5196 3.10511 17.7071 3.29265C17.8946 3.48019 18 3.73454 18 3.99976V11.9998Z" fill="white"/>
<path d="M8.39401 5.3827L8.60601 5.5947C8.6432 5.63184 8.67271 5.67596 8.69284 5.72452C8.71297 5.77308 8.72333 5.82513 8.72333 5.8777C8.72333 5.93026 8.71297 5.98231 8.69284 6.03087C8.67271 6.07943 8.6432 6.12355 8.60601 6.1607L7.34801 7.4177C7.33864 7.42699 7.3312 7.43805 7.32612 7.45024C7.32105 7.46242 7.31843 7.47549 7.31843 7.4887C7.31843 7.5019 7.32105 7.51497 7.32612 7.52715C7.3312 7.53934 7.33864 7.5504 7.34801 7.5597L8.60601 8.8167C8.6432 8.85384 8.67271 8.89796 8.69284 8.94652C8.71297 8.99508 8.72333 9.04713 8.72333 9.0997C8.72333 9.15226 8.71297 9.20431 8.69284 9.25287C8.67271 9.30143 8.6432 9.34555 8.60601 9.3827L8.39401 9.5947C8.35686 9.63189 8.31275 9.66139 8.26419 9.68152C8.21563 9.70165 8.16358 9.71201 8.11101 9.71201C8.05845 9.71201 8.00639 9.70165 7.95784 9.68152C7.90928 9.66139 7.86516 9.63189 7.82801 9.5947L6.11101 7.8777C6.05991 7.82662 6.01938 7.76598 5.99172 7.69923C5.96406 7.63249 5.94983 7.56094 5.94983 7.4887C5.94983 7.41645 5.96406 7.34491 5.99172 7.27816C6.01938 7.21141 6.05991 7.15077 6.11101 7.0997L7.82801 5.3827C7.86516 5.3455 7.90928 5.316 7.95784 5.29587C8.00639 5.27574 8.05845 5.26538 8.11101 5.26538C8.16358 5.26538 8.21563 5.27574 8.26419 5.29587C8.31275 5.316 8.35686 5.3455 8.39401 5.3827ZM12.172 5.3827L13.889 7.0997C13.9401 7.15077 13.9806 7.21141 14.0083 7.27816C14.036 7.34491 14.0502 7.41645 14.0502 7.4887C14.0502 7.56094 14.036 7.63249 14.0083 7.69923C13.9806 7.76598 13.9401 7.82662 13.889 7.8777L12.172 9.5947C12.1349 9.63189 12.0907 9.66139 12.0422 9.68152C11.9936 9.70165 11.9416 9.71201 11.889 9.71201C11.8364 9.71201 11.7844 9.70165 11.7358 9.68152C11.6873 9.66139 11.6432 9.63189 11.606 9.5947L11.394 9.3827C11.3568 9.34555 11.3273 9.30143 11.3072 9.25287C11.2871 9.20431 11.2767 9.15226 11.2767 9.0997C11.2767 9.04713 11.2871 8.99508 11.3072 8.94652C11.3273 8.89796 11.3568 8.85384 11.394 8.8167L12.652 7.5597C12.6614 7.5504 12.6688 7.53934 12.6739 7.52715C12.679 7.51497 12.6816 7.5019 12.6816 7.4887C12.6816 7.47549 12.679 7.46242 12.6739 7.45024C12.6688 7.43805 12.6614 7.42699 12.652 7.4177L11.394 6.1607C11.3568 6.12355 11.3273 6.07943 11.3072 6.03087C11.2871 5.98231 11.2767 5.93026 11.2767 5.8777C11.2767 5.82513 11.2871 5.77308 11.3072 5.72452C11.3273 5.67596 11.3568 5.63184 11.394 5.5947L11.606 5.3827C11.6432 5.3455 11.6873 5.316 11.7358 5.29587C11.7844 5.27574 11.8364 5.26538 11.889 5.26538C11.9416 5.26538 11.9936 5.27574 12.0422 5.29587C12.0907 5.316 12.1349 5.3455 12.172 5.3827Z" fill="#165DFF"/>
<path d="M16.992 14.4998H3C2.86868 14.4998 2.73864 14.4739 2.61732 14.4236C2.49599 14.3734 2.38575 14.2997 2.29289 14.2069C2.20003 14.114 2.12638 14.0038 2.07612 13.8824C2.02587 13.7611 2 13.6311 2 13.4998V12.9998H17.992V13.4998C17.992 13.765 17.8866 14.0193 17.6991 14.2069C17.5116 14.3944 17.2572 14.4998 16.992 14.4998ZM12.55 17.5078H7.46C7.42669 17.5078 7.3939 17.4995 7.3646 17.4836C7.33531 17.4677 7.31045 17.4448 7.29227 17.4169C7.27409 17.389 7.26317 17.357 7.2605 17.3238C7.25784 17.2906 7.26351 17.2572 7.277 17.2268L8.107 15.3468C8.12291 15.3114 8.14878 15.2813 8.18145 15.2604C8.21412 15.2394 8.25219 15.2284 8.291 15.2288H11.731C11.77 15.2286 11.8083 15.2399 11.8409 15.2612C11.8736 15.2826 11.8994 15.313 11.915 15.3488L12.733 17.2278C12.7463 17.2582 12.7518 17.2914 12.749 17.3245C12.7462 17.3575 12.7353 17.3894 12.7171 17.4172C12.699 17.445 12.6742 17.4678 12.645 17.4836C12.6158 17.4994 12.5832 17.5077 12.55 17.5078Z" fill="white" fill-opacity="0.7"/>
</svg>
