<svg width="36" height="36" viewBox="0 0 36 36" fill="none" xmlns="http://www.w3.org/2000/svg">
<path d="M22.5 16.503C22.8674 16.503 23.222 16.6379 23.4966 16.8821C23.7711 17.1262 23.9465 17.4626 23.9895 17.8275L24 18.003V28.5C24 30.0653 23.3883 31.5687 22.2954 32.6893C21.2025 33.8099 19.7149 34.4591 18.15 34.4982C16.5852 34.5374 15.067 33.9634 13.9194 32.8988C12.7719 31.8343 12.0857 30.3634 12.0075 28.8L12 28.5V26.9775C12.0004 26.5952 12.1468 26.2275 12.4093 25.9494C12.6717 25.6714 13.0304 25.5041 13.4121 25.4817C13.7938 25.4593 14.1696 25.5835 14.4628 25.8289C14.7559 26.0743 14.9443 26.4224 14.9895 26.802L15 26.9775V28.5C14.9965 29.2785 15.2958 30.0278 15.8346 30.5897C16.3734 31.1516 17.1095 31.4821 17.8874 31.5113C18.6653 31.5405 19.4242 31.2662 20.0036 30.7463C20.583 30.2263 20.9376 29.5015 20.9925 28.725L21 28.5V18.003C21 17.6052 21.158 17.2236 21.4393 16.9423C21.7206 16.661 22.1022 16.503 22.5 16.503ZM8.991 12C9.37332 12.0004 9.74105 12.1468 10.0191 12.4093C10.2971 12.6717 10.4644 13.0304 10.4868 13.4121C10.5092 13.7938 10.385 14.1696 10.1396 14.4627C9.89422 14.7559 9.54615 14.9443 9.1665 14.9895L8.991 15H7.488C5.838 15 4.5 16.3425 4.5 18C4.5 19.5825 5.7195 20.877 7.2645 20.9925L7.4895 21H18C18.3823 21.0004 18.75 21.1468 19.0281 21.4093C19.3061 21.6717 19.4734 22.0304 19.4958 22.4121C19.5182 22.7938 19.394 23.1696 19.1486 23.4627C18.9032 23.7559 18.5551 23.9443 18.1755 23.9895L18 24H7.488C6.70086 23.9992 5.92158 23.8434 5.19465 23.5414C4.46773 23.2395 3.8074 22.7973 3.25136 22.2402C2.69532 21.683 2.25447 21.0218 1.95397 20.2943C1.65347 19.5667 1.49921 18.7871 1.5 18C1.49877 16.462 2.0886 14.9824 3.14754 13.8671C4.20649 12.7517 5.65354 12.086 7.1895 12.0075L7.4895 12H8.991ZM28.491 12C29.2795 11.9994 30.0604 12.1541 30.7892 12.4553C31.5179 12.7566 32.1802 13.1983 32.7381 13.7555C33.2961 14.3126 33.7389 14.9742 34.0412 15.7025C34.3435 16.4308 34.4994 17.2115 34.5 18C34.4988 19.5405 33.9055 21.0216 32.8429 22.137C31.7803 23.2524 30.3297 23.9167 28.791 23.9925L28.491 24H27.051C26.6687 23.9996 26.301 23.8532 26.023 23.5907C25.7449 23.3283 25.5777 22.9696 25.5552 22.5879C25.5328 22.2062 25.657 21.8304 25.9024 21.5373C26.1478 21.2441 26.4959 21.0557 26.8755 21.0105L27.0495 21H28.491C28.8856 21.0006 29.2764 20.9235 29.6411 20.773C30.0059 20.6226 30.3374 20.4018 30.6168 20.1232C30.8962 19.8446 31.118 19.5137 31.2696 19.1494C31.4211 18.7851 31.4994 18.3946 31.5 18C31.4994 17.2419 31.212 16.5121 30.6957 15.957C30.1793 15.402 29.4721 15.0628 28.716 15.0075L28.491 15H18C17.6177 14.9996 17.25 14.8532 16.972 14.5907C16.6939 14.3283 16.5266 13.9696 16.5042 13.5879C16.4818 13.2062 16.606 12.8304 16.8514 12.5373C17.0968 12.2441 17.4449 12.0557 17.8245 12.0105L18 12H28.491ZM18 1.5C19.5394 1.5 21.0198 2.09165 22.1352 3.15259C23.2506 4.21352 23.9155 5.66256 23.9925 7.2L24 7.5V9.0045C23.9992 9.38669 23.8525 9.75417 23.59 10.0319C23.3274 10.3096 22.9687 10.4766 22.5872 10.4988C22.2056 10.521 21.83 10.3968 21.537 10.1514C21.2439 9.906 21.0556 9.55802 21.0105 9.1785L21 9.0045V7.5C21.0035 6.72153 20.7042 5.97218 20.1654 5.41027C19.6266 4.84836 18.8905 4.5179 18.1126 4.48869C17.3347 4.45948 16.5758 4.73381 15.9964 5.25374C15.417 5.77366 15.0624 6.49846 15.0075 7.275L15 7.5V17.9535C14.9992 18.3357 14.8525 18.7032 14.59 18.9809C14.3274 19.2586 13.9687 19.4256 13.5872 19.4478C13.2056 19.47 12.83 19.3458 12.537 19.1004C12.2439 18.855 12.0556 18.507 12.0105 18.1275L12 17.955V7.5C12 5.9087 12.6321 4.38258 13.7574 3.25736C14.8826 2.13214 16.4087 1.5 18 1.5Z" fill="#4E5969"/>
</svg>
