<svg width="36" height="36" viewBox="0 0 36 36" fill="none" xmlns="http://www.w3.org/2000/svg">
<path d="M11.7879 11.3941C11.7879 13.0841 10.1419 18.3741 16.9079 19.0861C19.8639 19.7461 20.6199 21.2181 20.3639 25.6261C20.3615 25.9812 20.3455 26.3362 20.3159 26.6901C19.2799 27.2341 18.5499 27.5621 18.1239 27.6741C18.1919 27.0641 18.8839 22.2481 17.4679 21.1261C16.0519 20.0061 15.0679 19.8681 13.6079 19.6761C12.9019 19.5821 11.7979 18.9901 10.9619 18.4761C10.1259 17.9641 9.63795 16.9721 9.48995 16.0441C9.38995 15.4241 9.36195 14.5281 9.40195 13.3561C9.93995 12.7561 10.7359 12.1001 11.7879 11.3961V11.3941ZM14.6199 9.77008C14.5739 10.3821 13.6199 15.6901 16.3579 16.9501C17.3579 17.4121 17.7779 17.5901 18.4839 17.7561C19.1899 17.9221 20.9779 18.1601 21.7179 18.9081C22.0179 19.2081 22.4699 19.7181 22.7219 20.3641C23.0899 21.3141 23.1879 22.6641 23.1879 24.0621V25.1181C22.3899 25.7161 21.7159 26.1321 21.1599 26.3721C21.1599 25.6561 21.4159 22.2981 20.7419 20.9161C20.0679 19.5361 19.3459 18.8861 18.1459 18.7261C16.9459 18.5661 15.0119 18.0701 14.2399 17.4201C13.4659 16.7721 12.4539 15.7961 12.4539 14.1541C12.4539 13.0601 12.4799 12.0081 12.5319 10.9961C13.3079 10.4301 14.0039 10.0221 14.6199 9.77008ZM17.4979 8.48608C17.4219 9.69808 17.2399 12.5901 17.8199 14.0921C18.3999 15.5941 19.6259 16.4321 20.9739 16.6641C22.3219 16.8941 24.7179 17.6881 25.3139 19.1241C25.8579 20.4301 25.9139 21.2101 25.9219 21.8501V22.9981C25.1819 23.6721 24.5279 24.1981 23.9579 24.5781C23.9579 22.6041 23.9519 20.7241 23.3779 19.6181C22.8059 18.5141 22.0519 17.8521 20.4099 17.4701C18.7699 17.0861 17.0539 16.9221 16.0179 15.5821C15.3259 14.6901 15.0759 13.2161 15.2639 11.1601L15.4339 9.41808C16.1139 9.05008 16.8019 8.73808 17.4979 8.48608Z" fill="#E8130D"/>
<path d="M8.29 14.2819C8.37 15.5439 8.472 16.3919 8.598 16.8259C8.954 18.0499 9.97 18.9679 10.424 19.2419C11.16 19.6879 12.6 20.2939 13.702 20.4419C14.436 20.5379 15.228 20.7739 16.082 21.1479C16.882 21.6759 17.294 22.1879 17.322 22.6879C17.492 25.9019 16.998 26.9879 16.784 28.1179C14.336 29.6139 4.218 29.7679 4.01 23.9859C3.87 20.1299 5.296 16.8959 8.29 14.2819ZM30.836 9.58392C33.064 12.8239 31.866 16.9579 27.244 21.9879C27.237 21.6092 27.1975 21.2319 27.126 20.8599C26.552 18.3039 25.526 17.1999 24.268 16.7359C23.008 16.2699 19.352 16.2259 18.642 13.6499C18.3351 11.7316 18.414 9.77137 18.874 7.88392C24.564 6.28592 28.552 6.85392 30.836 9.58392Z" fill="#1D2683"/>
</svg>
