<svg xmlns="http://www.w3.org/2000/svg" style="display: none;">
  <symbol id="icon-design" viewBox="0 0 24 24">
    <path d="M3 17.25V21h3.75L17.81 9.94l-3.75-3.75L3 17.25zM20.71 7.04c.39-.39.39-1.02 0-1.41l-2.34-2.34c-.39-.39-1.02-.39-1.41 0l-1.83 1.83 3.75 3.75 1.83-1.83z"/>
  </symbol>
  
  <symbol id="icon-speed" viewBox="0 0 24 24">
    <path d="M15.9 4.99c3.99 0.97 6.99 4.56 7.1 8.94l-1.93-0.63c-0.36-3.28-2.68-6.03-5.82-6.89l0.65-1.42zM13.03 14.25l5.97 5.97-1.41 1.41-5.97-5.97c-0.73 0.48-1.58 0.75-2.5 0.75-2.76 0-5-2.24-5-5s2.24-5 5-5 5 2.24 5 5c0 0.92-0.27 1.77-0.75 2.5z"/>
  </symbol>
  
  <symbol id="icon-security" viewBox="0 0 24 24">
    <path d="M12 1L3 5v6c0 5.55 3.84 10.74 9 12 5.16-1.26 9-6.45 9-12V5l-9-4zm0 10.99h7c-.53 4.12-3.28 7.79-7 8.94V12H5V6.3l7-3.11v8.8z"/>
  </symbol>
  
  <symbol id="icon-extend" viewBox="0 0 24 24">
    <path d="M3 17v2h6v-2H3zM3 5v2h10V5H3zm10 16v-2h8v-2h-8v-2h-2v6h2zM7 9v2H3v2h4v2h2V9H7zm14 4v-2H11v2h10zm-6-4h2V7h4V5h-4V3h-2v6z"/>
  </symbol>
</svg>