<svg width="36" height="36" viewBox="0 0 36 36" fill="none" xmlns="http://www.w3.org/2000/svg">
<path d="M3.87825 26.4925L5.17206 27.2395L19.5856 2.27532L18.2918 1.52832L3.87825 26.4925Z" fill="#E535AB"/>
<path d="M32.409 24.498H3.58197V25.992H32.409V24.498Z" fill="#E535AB"/>
<path d="M4.15239 25.3374L18.5713 33.6624L19.3183 32.3686L4.89939 24.0436L4.15239 25.3374Z" fill="#E535AB"/>
<path d="M16.6781 3.64009L31.097 11.9651L31.844 10.6713L17.4251 2.34628L16.6781 3.64009Z" fill="#E535AB"/>
<path d="M4.15638 10.6657L4.90338 11.9595L19.3223 3.63447L18.5753 2.34067L4.15638 10.6657Z" fill="#E535AB"/>
<path d="M16.4177 2.27556L30.8312 27.2397L32.125 26.4927L17.7115 1.52856L16.4177 2.27556Z" fill="#E535AB"/>
<path d="M6.21898 9.67505H4.72498V26.325H6.21898V9.67505Z" fill="#E535AB"/>
<path d="M31.275 9.67505H29.781V26.325H31.275V9.67505Z" fill="#E535AB"/>
<path d="M17.6645 31.8999L18.317 33.03L30.8575 25.7895L30.205 24.6594L17.6645 31.8999Z" fill="#E535AB"/>
<path d="M33.255 26.811C32.391 28.314 30.465 28.827 28.962 27.963C27.459 27.099 26.946 25.173 27.81 23.67C28.674 22.167 30.6 21.654 32.103 22.518C33.615 23.391 34.128 25.308 33.255 26.811Z" fill="#E535AB"/>
<path d="M8.181 12.3301C7.317 13.8331 5.391 14.3461 3.888 13.4821C2.385 12.6181 1.872 10.6921 2.736 9.18908C3.6 7.68608 5.526 7.17308 7.029 8.03708C8.532 8.91008 9.045 10.8271 8.181 12.3301Z" fill="#E535AB"/>
<path d="M2.74503 26.811C1.88103 25.308 2.39403 23.391 3.89703 22.518C5.40003 21.654 7.31703 22.167 8.19003 23.67C9.05403 25.173 8.54103 27.09 7.03803 27.963C5.52603 28.827 3.60903 28.314 2.74503 26.811Z" fill="#E535AB"/>
<path d="M27.819 12.3301C26.955 10.8271 27.468 8.91008 28.971 8.03708C30.474 7.17308 32.391 7.68608 33.264 9.18908C34.128 10.6921 33.615 12.6091 32.112 13.4821C30.609 14.3461 28.683 13.8331 27.819 12.3301Z" fill="#E535AB"/>
<path d="M18 35.6221C16.263 35.6221 14.859 34.2181 14.859 32.4811C14.859 30.7441 16.263 29.3401 18 29.3401C19.737 29.3401 21.141 30.7441 21.141 32.4811C21.141 34.2091 19.737 35.6221 18 35.6221Z" fill="#E535AB"/>
<path d="M18 6.65993C16.263 6.65993 14.859 5.25593 14.859 3.51893C14.859 1.78193 16.263 0.37793 18 0.37793C19.737 0.37793 21.141 1.78193 21.141 3.51893C21.141 5.25593 19.737 6.65993 18 6.65993Z" fill="#E535AB"/>
</svg>
