<svg width="36" height="36" viewBox="0 0 36 36" fill="none" xmlns="http://www.w3.org/2000/svg">
<path d="M18.8193 35.9996L17.8611 35.6717C17.8611 35.6717 17.9778 30.7863 16.2243 30.4356C15.056 29.08 16.4121 -27.0698 20.6195 30.2488C20.6195 30.2488 19.17 30.9751 18.9126 32.2125C18.632 33.428 18.8193 35.9996 18.8193 35.9996Z" fill="white"/>
<path d="M18.8193 35.9996L17.8611 35.6717C17.8611 35.6717 17.9778 30.7863 16.2243 30.4356C15.056 29.08 16.4121 -27.0698 20.6195 30.2488C20.6195 30.2488 19.17 30.9751 18.9126 32.2125C18.632 33.428 18.8193 35.9996 18.8193 35.9996Z" fill="#A6A385"/>
<path d="M19.3334 31.2775C19.3334 31.2775 27.7258 25.7602 25.7627 14.2826C23.8686 5.93736 19.404 3.20234 18.9148 2.15072C18.3752 1.40056 17.8611 0.09375 17.8611 0.09375L18.2118 23.3058C18.2118 23.3291 17.4855 30.4132 19.334 31.2775" fill="white"/>
<path d="M19.3334 31.2775C19.3334 31.2775 27.7258 25.7602 25.7627 14.2826C23.8686 5.93736 19.404 3.20234 18.9148 2.15072C18.3752 1.40056 17.8611 0.09375 17.8611 0.09375L18.2118 23.3058C18.2118 23.3291 17.4855 30.4132 19.334 31.2775" fill="#499D4A"/>
<path d="M17.3703 31.5811C17.3703 31.5811 9.49197 26.2044 9.95993 16.7376C10.4066 7.27024 15.9675 2.6183 17.0424 1.77685C17.7438 1.02873 17.7687 0.748082 17.8144 0C18.3051 1.05211 18.2118 15.7322 18.2813 17.4618C18.4919 24.1236 17.9077 30.3189 17.3703 31.5811Z" fill="white"/>
<path d="M17.3703 31.5811C17.3703 31.5811 9.49197 26.2044 9.95993 16.7376C10.4066 7.27024 15.9675 2.6183 17.0424 1.77685C17.7438 1.02873 17.7687 0.748082 17.8144 0C18.3051 1.05211 18.2118 15.7322 18.2813 17.4618C18.4919 24.1236 17.9077 30.3189 17.3703 31.5811Z" fill="#58AA50"/>
</svg>
