<svg width="36" height="36" viewBox="0 0 36 36" fill="none" xmlns="http://www.w3.org/2000/svg">
<path d="M35.2136 27.9067C34.938 27.4196 34.299 26.5871 31.9399 24.9817C30.5326 24.0163 29.0627 23.1456 27.54 22.3751C26.4645 19.4647 24.3821 15.6914 21.3435 11.1476C18.072 6.25493 14.2729 4.19393 10.0271 5.01068C9.56392 4.55144 9.08397 4.10939 8.58825 3.68543C7.51725 2.76631 4.89375 1.98556 3.38625 2.13518C2.70338 2.20381 2.19038 2.45356 1.86188 2.87656C1.10025 3.85756 1.3545 5.26943 4.86788 9.86956C5.53613 11.8248 5.679 12.8463 5.679 13.3604C5.679 14.4472 6.24038 15.6937 7.43625 17.2541L6.31125 21.1038C5.30775 24.5418 7.13138 28.9889 8.829 30.5392C9.73463 31.3672 10.4974 31.2434 10.8743 31.0961C11.6303 30.7991 12.24 30.0599 12.6338 27.9494C12.8501 28.4826 13.0635 29.017 13.2739 29.5526C14.4889 32.6373 15.6769 34.3439 17.0123 34.9222C17.2823 35.0218 17.5802 35.0142 17.8448 34.901C18.1094 34.7878 18.3207 34.5776 18.4351 34.3135C18.5496 34.0494 18.5586 33.7516 18.4603 33.481C18.3621 33.2105 18.1639 32.9879 17.9066 32.8589C17.5759 32.7149 16.6646 32.0253 15.3653 28.7279C14.2695 25.9458 13.4719 24.0851 12.9263 23.0377C12.8109 22.8187 12.6271 22.6435 12.4028 22.5389C12.1785 22.4343 11.9261 22.406 11.6843 22.4583C11.4423 22.5123 11.2249 22.6447 11.0658 22.8349C10.9067 23.0251 10.8149 23.2625 10.8045 23.5102C10.6684 26.7108 10.3455 28.0946 10.1295 28.6784C9.198 27.6074 7.73438 24.2493 8.469 21.7338C9.19913 19.2296 9.62888 17.7637 9.75713 17.3306C9.80913 17.1551 9.81745 16.9696 9.78137 16.7902C9.7453 16.6108 9.66591 16.4429 9.55013 16.3012C8.08538 14.5023 7.92675 13.6439 7.92675 13.3582C7.92675 12.3221 7.60163 10.8832 6.93225 8.95831C6.89378 8.84562 6.83716 8.73998 6.76463 8.64556C4.87238 6.18068 4.17713 4.94656 3.92288 4.36043C4.824 4.40318 6.53625 4.88918 7.12238 5.39318C7.72421 5.90612 8.29946 6.44945 8.84588 7.02106C8.98401 7.16691 9.15879 7.27299 9.35194 7.32821C9.54509 7.38342 9.74952 7.38574 9.94388 7.33493C13.4663 6.42368 16.5859 8.07856 19.4738 12.3974C22.5608 17.0144 24.6116 20.7663 25.5701 23.5496C25.6185 23.6903 25.6943 23.82 25.7932 23.9313C25.8921 24.0425 26.012 24.133 26.1461 24.1976C27.719 24.9661 29.2325 25.8505 30.6743 26.8436C30.9115 27.0048 31.1466 27.169 31.3796 27.3363H27.9045C27.69 27.3369 27.4801 27.3988 27.2995 27.5146C27.1189 27.6305 26.9752 27.7955 26.8853 27.9903C26.7953 28.1851 26.7629 28.4015 26.7918 28.6141C26.8207 28.8267 26.9097 29.0266 27.0484 29.1903C28.1641 30.5119 29.3112 31.8068 30.4886 33.0738C30.5886 33.1863 30.7101 33.2775 30.846 33.3421C30.9819 33.4068 31.1294 33.4435 31.2797 33.4502C31.43 33.4568 31.5801 33.4332 31.7212 33.3808C31.8622 33.3284 31.9913 33.2482 32.1008 33.145C32.2104 33.0418 32.2981 32.9177 32.3588 32.78C32.4195 32.6424 32.4519 32.4939 32.4542 32.3434C32.4565 32.193 32.4286 32.0436 32.3721 31.9041C32.3157 31.7647 32.2318 31.6379 32.1255 31.5314C31.5279 30.8929 30.9409 30.2444 30.3649 29.5863H34.2349C34.4315 29.586 34.6245 29.5342 34.7949 29.4361C34.9652 29.338 35.1069 29.197 35.2059 29.0272C35.3049 28.8573 35.3577 28.6645 35.359 28.468C35.3604 28.2714 35.3102 28.0779 35.2136 27.9067ZM11.25 10.1767C11.6955 10.9417 12.0398 11.4896 12.2816 11.8214C12.573 12.3929 13.0264 12.8497 13.3166 13.4223L13.3875 13.3526C13.8983 13.0027 14.2988 11.6122 13.4843 10.6987C13.0613 10.0597 11.6899 10.0777 11.25 10.1767Z" fill="#1F7DE0"/>
</svg>
