<svg width="36" height="36" viewBox="0 0 36 36" fill="none" xmlns="http://www.w3.org/2000/svg">
<g clip-path="url(#clip0_14497_6387)">
<path d="M24.618 6.61792H11.388C8.36931 6.61633 5.47362 7.81398 3.33795 9.94739C1.20229 12.0808 0.00159288 14.9752 1.58373e-06 17.9939C-0.00158971 21.0126 1.19606 23.9083 3.32947 26.044C5.46288 28.1796 8.35731 29.3803 11.376 29.3819H24.618C27.6367 29.3819 30.5318 28.1828 32.6663 26.0482C34.8008 23.9137 36 21.0186 36 17.9999C36 14.9812 34.8008 12.0862 32.6663 9.95163C30.5318 7.81709 27.6367 6.61792 24.618 6.61792ZM24.3285 25.3709H11.679C9.74984 25.332 7.91282 24.5383 6.56225 23.1602C5.21168 21.7821 4.45521 19.9295 4.45521 17.9999C4.45521 16.0704 5.21168 14.2177 6.56225 12.8396C7.91282 11.4615 9.74984 10.6678 11.679 10.6289H24.3285C26.2834 10.6289 28.1583 11.4055 29.5406 12.7878C30.9229 14.1702 31.6995 16.045 31.6995 17.9999C31.6995 19.9548 30.9229 21.8297 29.5406 23.212C28.1583 24.5943 26.2834 25.3709 24.3285 25.3709Z" fill="#C74634"/>
</g>
<defs>
<clipPath id="clip0_14497_6387">
<rect width="36" height="36" fill="white"/>
</clipPath>
</defs>
</svg>
