<svg width="36" height="36" viewBox="0 0 36 36" fill="none" xmlns="http://www.w3.org/2000/svg">
<path d="M32.7151 20.36C32.2122 19.9289 31.5656 19.8571 30.9189 20.0726C30.416 20.2163 29.8412 20.2882 29.3383 20.2882C30.7753 17.9172 31.853 15.3307 32.5714 12.6005C32.9307 11.379 33.1462 10.0858 33.1462 8.72068C33.2899 7.64296 33.0025 6.56525 32.3559 5.70307C30.5597 3.40394 27.7576 2.11068 24.8837 2.18253H24.6682C23.4468 2.18253 22.2254 2.39807 21.0758 2.68546H21.004C20.2855 2.54177 19.4951 2.46992 18.7767 2.46992C17.4116 2.39807 15.9746 2.75731 14.7532 3.47579C13.0288 2.82916 11.089 2.54177 9.22091 2.61362C7.49657 2.61362 5.77222 3.33209 4.55081 4.55351C3.25755 5.91862 2.61092 8.0022 2.68277 10.948C2.82646 12.2412 3.042 13.5345 3.3294 14.7559C3.76048 16.6239 4.26342 18.4201 4.91005 20.2163C5.41298 21.8688 6.27516 23.4495 7.42472 24.7427C7.9995 25.3175 8.78983 25.6768 9.652 25.7486C10.2986 25.7486 10.8734 25.4612 11.3763 25.0301C11.8074 25.5331 12.3822 25.8205 13.0288 25.9641C13.891 26.1797 14.7532 26.2515 15.6154 26.1078C16.0465 26.036 16.4057 25.8923 16.7649 25.7486C16.7649 26.1797 16.7649 26.6108 16.8368 27.0419C16.7649 28.3351 16.9805 29.5565 17.3397 30.778C17.4834 31.4964 17.8427 32.1431 18.3456 32.7178C19.3515 33.6519 20.7166 34.0111 22.0098 33.7237C23.3749 33.5082 24.6682 32.7897 25.4585 31.712C26.3925 30.4187 26.8236 28.4788 26.8955 25.3894C26.8955 25.2457 26.9673 25.102 26.9673 24.9583H27.1829C28.4043 25.0301 29.6257 24.8146 30.7034 24.3835C31.5656 24.0243 32.3559 23.4495 32.9307 22.6592C33.0744 22.3718 33.2181 22.0844 33.2899 21.797C33.3618 21.2222 33.1462 20.7193 32.7151 20.36ZM32.2841 22.0125C31.7811 22.6592 31.2063 23.0902 30.416 23.3776C29.5538 23.7369 28.6198 23.8806 27.6858 23.8806C27.2547 23.8806 26.8236 23.8087 26.3925 23.7369C26.177 25.5331 26.0333 27.3293 25.6741 29.1255C25.6022 29.9876 25.1711 30.8498 24.5963 31.5683C23.8779 32.2149 23.0157 32.646 22.0817 32.7178C21.004 33.0052 19.9262 32.7897 19.0641 32.1431C18.5611 31.712 18.2019 31.0653 17.9145 30.4187C17.7708 29.9876 17.699 29.6284 17.6271 29.1973C17.5553 28.5507 17.4834 27.904 17.4834 27.3293C17.4116 26.1797 17.4116 25.102 17.4116 24.0243C16.8368 24.5272 16.1183 24.8864 15.3998 25.0301C14.6813 25.1738 13.891 25.102 13.1725 24.8864C12.957 24.8146 12.7415 24.7427 12.5259 24.599C12.2385 24.5272 12.0948 24.3117 11.9511 24.0961C11.8793 23.9524 11.8074 23.7369 11.8793 23.5932C11.9511 23.4495 12.023 23.2339 12.1667 23.1621C12.5259 22.9465 12.8852 22.8028 13.3162 22.731C13.8192 22.6592 14.3221 22.5155 14.825 22.2999C15.1124 22.0844 15.328 21.797 15.5435 21.5096V21.4377C14.8969 21.4377 14.3221 21.2222 13.7473 21.0067C13.5318 21.2222 12.5978 22.2281 11.3045 23.7369C10.8734 24.3116 10.2986 24.6709 9.58015 24.7427C8.93352 24.7427 8.35874 24.4553 7.92765 24.0243C6.84994 22.8028 6.13146 21.3659 5.62853 19.8571C5.05374 17.989 4.55081 16.1929 4.19157 14.3967C3.90418 13.1752 3.68863 12.0257 3.54494 10.8043C3.40124 8.07405 4.04787 6.27785 5.12559 5.12829C6.20331 4.05057 7.64026 3.47579 9.22091 3.40394C11.1608 3.33209 13.1007 3.69133 14.8969 4.40981C16.0465 3.69133 17.3397 3.33209 18.7048 3.33209C19.4233 3.33209 20.2136 3.47579 20.9321 3.61949C21.2195 3.47579 21.5787 3.40394 21.938 3.33209C22.872 3.11655 23.7342 3.0447 24.6682 2.97286C27.3984 2.90101 29.9849 4.05057 31.7093 6.20601C32.1404 6.92448 32.3559 7.85851 32.2841 8.72068C32.2122 9.94209 31.9967 11.1635 31.7093 12.3849C30.9189 15.4025 29.6257 18.2764 27.9013 20.9348C27.9732 21.0067 28.045 21.0067 28.1169 21.0785C29.1228 21.294 30.1286 21.294 31.1345 21.0067C31.4937 20.863 31.9248 20.9348 32.2841 21.0785C32.4277 21.2222 32.5714 21.4377 32.5714 21.6533C32.3559 21.6533 32.3559 21.8688 32.2841 22.0125Z" fill="black"/>
<path d="M24.7401 3.90692H24.5245C23.806 3.90692 23.0157 3.97877 22.2972 4.19431C23.7342 4.84094 25.0275 5.91866 26.0333 7.14007C26.6081 7.93039 27.111 8.72072 27.5421 9.65474C27.6858 10.014 27.8295 10.3014 27.9014 10.5169C27.9014 10.6606 27.9732 10.7325 27.9732 10.8762V11.0917C28.0451 12.2413 27.6858 12.9597 27.6858 14.1093C27.6858 14.8996 27.9014 15.8337 27.9014 16.8395C28.0451 17.9172 27.7577 18.995 27.1829 19.8571C27.2547 19.929 27.3266 20.0008 27.3266 20.0727C28.8354 17.6298 30.0568 14.9715 30.7753 12.1694C31.0627 11.0198 31.2782 9.87028 31.2782 8.72072C31.3501 8.07409 31.2064 7.42746 30.919 6.78083C29.482 4.84094 27.1829 3.83507 24.7401 3.90692Z" fill="#306092"/>
<path d="M18.5611 4.19427C17.2679 4.12243 16.0465 4.55351 15.1125 5.34384C14.2503 6.06232 13.6755 7.06819 13.2444 8.07406C12.8852 9.07992 12.6696 10.1576 12.5978 11.2354C13.1726 10.948 13.7473 10.7324 14.394 10.5887C15.0406 10.445 15.7591 10.445 16.4057 10.6606C17.1242 10.948 17.6271 11.5946 17.7708 12.3849C18.7048 16.6239 17.4834 18.2046 17.0523 19.4979C16.8368 19.9289 16.6931 20.36 16.6213 20.7911C16.6931 20.7911 16.7649 20.7911 16.8368 20.7193C17.0523 20.7193 17.3397 20.7911 17.5553 20.863C17.9864 21.0785 18.3456 21.4377 18.4893 21.9407C18.5611 22.0844 18.5611 22.2281 18.5611 22.2999V22.5155C18.4893 24.168 18.4893 25.8205 18.5611 27.473C18.5611 28.1196 18.633 28.6944 18.7048 29.341C18.7048 29.7002 18.7767 29.9876 18.9204 30.3469C19.0641 30.8498 19.3515 31.2809 19.7826 31.6401C20.2136 31.9994 20.8603 32.2149 22.0098 31.9994C22.7283 31.9275 23.4468 31.5683 24.0216 31.0653C24.4527 30.4906 24.7401 29.8439 24.8119 29.1255C25.0993 27.7604 25.5304 23.7369 25.6022 23.0184C25.6022 22.5873 25.6741 22.0844 25.8896 21.7251C26.0333 21.4377 26.3207 21.2222 26.6081 21.0785C26.7518 21.0067 26.8236 21.0067 26.9673 20.9348C26.8236 20.7911 26.7518 20.6474 26.6081 20.5037C26.2489 20.0726 25.9615 19.5697 25.7459 19.0668C25.6022 18.8512 25.5304 18.6357 25.3867 18.4201C25.1711 18.0609 25.0274 17.7017 24.7401 17.2706C24.2371 16.3366 23.806 15.3307 23.5186 14.253C23.2312 13.1752 23.1594 12.1694 23.8779 11.3791C24.4527 10.7324 25.5304 10.3732 27.111 10.5887C27.0392 10.445 27.0392 10.3013 26.9673 10.1576C26.6799 9.29547 26.177 8.50514 25.6022 7.85851C24.0216 5.70308 21.5069 4.48167 18.8485 4.40982L18.5611 4.19427Z" fill="#306092"/>
<path d="M9.79572 4.26611H9.29279C7.99953 4.26611 6.70627 4.76905 5.84409 5.70307C4.91007 6.63709 4.26344 8.21774 4.40714 10.8761C4.55083 12.0257 4.76637 13.1752 4.98192 14.3248C5.34116 16.121 5.84409 17.8453 6.49072 19.5697C6.92181 21.0066 7.64029 22.2999 8.57431 23.4495C8.78985 23.7369 9.14909 23.8806 9.58018 23.8806C10.0113 23.8087 10.3705 23.5932 10.6579 23.2339C11.4482 22.2999 12.2385 21.3659 13.0289 20.5756C11.8075 19.5697 11.2327 17.989 11.5201 16.4084C11.5919 15.5462 11.6638 14.684 11.6638 13.75C11.6638 13.0315 11.5919 12.6005 11.5919 12.3131V12.2412C11.5919 10.7324 11.8793 9.22361 12.3822 7.78666C12.7415 6.78079 13.3163 5.84676 14.1066 5.05644C12.8852 4.62535 11.5919 4.40981 10.2987 4.33796C10.0831 4.26611 9.93942 4.26611 9.79572 4.26611ZM26.7518 14.0374C26.8236 12.8878 27.0392 12.1694 27.0392 11.379C26.68 11.3072 26.3926 11.3072 26.0333 11.3072C25.4585 11.2353 24.8838 11.4509 24.3808 11.8101C24.0216 12.1694 24.0216 12.9597 24.1653 13.8937C24.4527 14.8996 24.8119 15.8336 25.3148 16.6958C25.5304 17.1269 25.7459 17.4861 25.8896 17.8453C26.0333 18.0609 26.177 18.3483 26.2489 18.5638C26.3207 18.7075 26.3926 18.9231 26.5363 18.9949C26.8236 18.2764 26.9673 17.558 26.8955 16.8395C26.9673 15.9773 26.7518 14.9714 26.7518 14.0374ZM26.2489 11.882C26.2489 11.9538 26.2489 12.0257 26.177 12.0975C26.1052 12.1694 26.1052 12.2412 26.0333 12.3131C25.8896 12.4568 25.6741 12.5286 25.5304 12.6005C25.3148 12.6005 25.1711 12.6005 25.0275 12.4568C24.9556 12.3849 24.8838 12.3849 24.8119 12.3131C24.7401 12.3131 24.7401 12.2412 24.7401 12.1694C24.7401 12.0975 24.7401 12.0257 24.8119 11.9538L24.9556 11.8101C25.1711 11.6664 25.4585 11.5946 25.6741 11.5946H26.0333C26.1052 11.5946 26.177 11.6664 26.2489 11.6664V11.882Z" fill="#306092"/>
<path d="M16.8368 12.5285C16.765 12.0256 16.4776 11.5945 15.9746 11.379C15.7591 11.3071 15.5435 11.3071 15.328 11.3071C15.0406 11.3071 14.8251 11.379 14.5377 11.379C14.0347 11.5227 13.5318 11.7382 13.0289 11.9538C12.8852 12.0256 12.7415 12.1693 12.5978 12.313C12.5978 12.5285 12.6696 12.9596 12.6696 13.6063C12.6696 14.5403 12.6696 15.4743 12.5259 16.3365C12.1667 18.2764 13.46 20.0726 15.3998 20.4318C15.5435 20.4318 15.6154 20.4318 15.7591 20.5036C15.9028 20.0726 16.1183 19.5696 16.1902 19.0667C16.6213 17.7734 17.699 16.6957 16.8368 12.5285ZM16.3339 12.6004L16.1183 12.8159C15.9746 12.9596 15.7591 13.0315 15.5435 12.9596C15.328 12.8878 15.1843 12.8159 15.0406 12.6004C14.9688 12.5285 14.8969 12.4567 14.8969 12.3848C14.7532 12.2412 14.7532 12.1693 14.7532 12.0975C14.7532 11.9538 14.8969 11.8819 15.0406 11.8101C15.1843 11.7382 15.328 11.7382 15.3998 11.7382H15.6154C15.8309 11.7382 15.9746 11.8101 16.1183 11.9538C16.1902 12.0256 16.262 12.0256 16.3339 12.0975C16.4057 12.1693 16.4057 12.2412 16.4057 12.3848C16.3339 12.4567 16.3339 12.5285 16.3339 12.6004ZM27.3266 21.5095C27.1829 21.5814 27.0392 21.5814 26.8955 21.5814C26.7518 21.6532 26.68 21.7251 26.5363 21.8688C26.4644 22.1561 26.3926 22.4435 26.3926 22.7309C26.4644 22.8028 26.5363 22.8028 26.6081 22.8028C26.8955 22.8746 27.2547 22.9465 27.614 22.9465C28.4761 22.9465 29.2665 22.8028 30.0568 22.5154C30.4879 22.2998 30.919 22.0843 31.2782 21.7251C29.4102 22.0843 28.4761 22.0124 27.8295 21.7251C27.614 21.6532 27.4703 21.5814 27.3266 21.5095ZM16.765 21.6532C16.6931 21.6532 16.5494 21.6532 16.4057 21.9406C15.9746 22.4435 15.8309 22.8028 15.3998 23.0902C14.8251 23.4494 14.2503 23.6649 13.5318 23.7368C13.3163 23.7368 13.1007 23.8086 12.957 23.9523L13.0289 24.0242C13.1726 24.096 13.3881 24.1679 13.46 24.2397C14.0347 24.3834 14.6814 24.4553 15.328 24.3834C16.1902 24.2397 16.9805 23.7368 17.4116 23.0183C17.5553 22.8028 17.5553 22.5872 17.4116 22.3717C17.3397 22.1561 17.1242 21.9406 16.9805 21.8688C16.9805 21.6532 16.8368 21.6532 16.765 21.6532Z" fill="#306092"/>
</svg>
