<svg width="36" height="36" viewBox="0 0 36 36" fill="none" xmlns="http://www.w3.org/2000/svg">
<path d="M30 15.711V20.2892C30 20.6337 29.7207 20.9135 29.3757 20.9135H20.9135V29.3757C20.9135 29.7208 20.6337 30 20.2892 30H15.711C15.3666 30 15.0867 29.7207 15.0867 29.3757V20.9135H6.62429C6.27938 20.9135 6 20.6337 6 20.2892V15.711C6 15.3663 6.27938 15.0867 6.62429 15.0867H15.0867V6.62429C15.0867 6.27924 15.3665 6 15.711 6H20.2892C20.6337 6 20.9135 6.27924 20.9135 6.62429V15.0867H29.3757C29.7208 15.0867 30 15.3663 30 15.711Z" fill="#4C5664"/>
</svg>
