<svg width="36" height="36" viewBox="0 0 36 36" fill="none" xmlns="http://www.w3.org/2000/svg">
<path d="M22.3139 16.7809L15.1152 19.1315L8.8527 21.8955L7.10062 22.3581C6.6542 22.7826 6.18638 23.2124 5.68052 23.6476C5.12533 24.1264 4.6085 24.5618 4.21267 24.8771C3.76935 25.2255 3.11745 25.8784 2.78575 26.292C2.29033 26.9124 1.89918 27.5698 1.73018 28.0767C1.43083 28.9909 1.57894 29.9158 2.15445 30.7704C2.89449 31.8585 4.36912 32.9686 6.08833 33.7248C6.96449 34.1113 8.43912 34.6062 9.54893 34.8837C11.3936 35.353 14.9629 35.8578 16.927 35.934C17.3241 35.9505 17.8574 35.9505 17.8793 35.934C17.9228 35.9079 18.2274 35.3246 18.5813 34.601C19.7891 32.136 20.6598 29.8235 21.1331 27.8472C21.416 26.6503 21.639 25.057 21.785 23.1678C21.8233 22.64 21.8395 20.8731 21.8069 20.2733C21.7579 19.2942 21.6708 18.5001 21.5349 17.7215C21.513 17.6073 21.5075 17.504 21.5185 17.4986C21.5402 17.4821 21.6056 17.4605 22.4924 17.2046L22.313 16.7804L22.3139 16.7809ZM20.671 17.7439C20.7362 17.7439 20.9101 19.4144 20.9537 20.4699C20.9647 20.6932 20.9592 20.84 20.9485 20.84C20.9049 20.84 20.0288 20.3231 19.4032 19.9315C18.859 19.5886 17.8253 18.903 17.6621 18.7724C17.6076 18.7343 17.613 18.7291 18.0592 18.5765C18.8154 18.3207 20.6108 17.7439 20.6708 17.7439H20.671ZM17.0034 18.9521C17.0524 18.9521 17.1773 19.0227 17.4767 19.2076C18.5979 19.9096 20.1211 20.7583 20.774 21.0415C20.9753 21.1284 20.997 21.0958 20.5346 21.4113C19.5438 22.0862 18.309 22.7498 16.7963 23.4192C16.5298 23.5389 16.3069 23.6312 16.3009 23.6312C16.2899 23.6312 16.3225 23.4953 16.3661 23.3321C16.7311 21.9761 16.9374 20.6061 16.9484 19.507C16.9538 18.9627 16.9538 18.9627 17.0029 18.9466C16.9919 18.9521 16.9974 18.9521 17.0029 18.9521H17.0034ZM16.2472 19.2404C16.2795 19.273 16.2579 20.4921 16.2143 20.8238C16.1169 21.6259 15.9494 22.4179 15.7139 23.1907C15.6539 23.3918 15.5994 23.5605 15.5887 23.5715C15.5668 23.5975 14.8213 22.8695 14.5765 22.5866C14.1522 22.0969 13.8202 21.6071 13.5754 21.1284C13.4502 20.8835 13.2544 20.4047 13.2708 20.3883C13.3577 20.3286 16.2253 19.2185 16.2471 19.241L16.2472 19.2404ZM12.6875 20.6387C12.6904 20.6383 12.6935 20.6386 12.6963 20.6396C12.6992 20.6405 12.7018 20.6421 12.7039 20.6441C12.7378 20.7064 12.7651 20.772 12.7855 20.8399C12.9595 21.3133 13.3511 22.0098 13.6885 22.4567C14.0586 22.9464 14.5431 23.4687 14.9455 23.8127C15.0758 23.9214 15.1958 24.0249 15.2119 24.0411C15.2448 24.074 15.2557 24.0672 14.3686 24.4062C13.3404 24.7973 12.2194 25.1885 10.9354 25.6033C10.6284 25.7021 10.3219 25.8018 10.016 25.9024C9.96694 25.9189 9.98336 25.8918 10.1247 25.6677C10.7612 24.6721 11.7297 22.7188 12.2739 21.3367C12.3665 21.0973 12.4591 20.8579 12.4752 20.8035C12.4971 20.7273 12.5242 20.6991 12.5949 20.6619C12.6251 20.6519 12.656 20.6447 12.6875 20.6402V20.6387ZM11.5993 21.0903C11.6155 21.1013 11.3386 21.6833 11.0661 22.2165C10.5383 23.245 9.96146 24.257 9.18855 25.4868C9.05819 25.699 8.933 25.8949 8.91658 25.9165C8.89049 25.9546 8.87851 25.9426 8.79142 25.7752C8.6065 25.4101 8.45399 24.9426 8.37236 24.5128C8.29076 24.0883 8.30718 23.3482 8.39975 22.8914C8.47041 22.554 8.46493 22.5594 8.62819 22.4778C9.32467 22.1242 11.5774 21.0697 11.5991 21.0903H11.5993ZM20.9853 21.4713V21.6997C20.9853 22.913 20.8548 24.578 20.664 25.7916C20.6314 26.0036 20.6043 26.1778 20.5988 26.1827C20.5988 26.1827 20.4423 26.1392 20.2562 26.0847C19.389 25.8094 18.5506 25.4504 17.7528 25.013C17.225 24.7246 16.4579 24.251 16.4798 24.2294C16.485 24.2239 16.7144 24.1042 16.9802 23.9626C18.0467 23.4077 19.0697 22.8093 19.9565 22.2155C20.2885 21.9925 20.7889 21.6335 20.8979 21.5354L20.985 21.4702L20.9853 21.4713ZM7.49229 23.0818C7.51395 23.0818 7.50847 23.1253 7.47588 23.3212C7.45422 23.4627 7.42683 23.7237 7.41615 23.9031C7.37259 24.6977 7.50323 25.2852 7.8949 26.0907C8.00364 26.3137 8.091 26.4988 8.08527 26.504C8.0472 26.5369 4.44527 27.5924 3.31331 27.9025C2.97588 27.9951 2.68225 28.0767 2.66137 28.0819C2.62329 28.0929 2.61784 28.0877 2.63532 27.9951C2.76047 27.1953 3.36987 26.1504 4.21865 25.269C4.78477 24.6813 5.23565 24.3386 6.00881 23.8977C6.56396 23.5822 7.41692 23.1089 7.48343 23.0872C7.48343 23.0818 7.48888 23.0818 7.49437 23.0818H7.49229ZM15.9804 24.5997C15.9859 24.5945 16.1165 24.6651 16.2743 24.7577C17.4386 25.4323 19.06 26.0581 20.4421 26.3791L20.5672 26.4052L20.3931 26.503C19.6694 26.9059 17.2915 27.896 14.8596 28.8047C14.5058 28.9351 14.1577 29.0655 14.0922 29.0932C14.0268 29.1208 13.9671 29.1367 13.9671 29.1312C13.9671 29.1257 14.0651 28.9354 14.1903 28.7012C14.8703 27.4282 15.5559 25.8774 15.904 24.8002C15.9478 24.6959 15.9749 24.6044 15.9804 24.5986V24.5997ZM15.1152 24.8828C15.1207 24.8883 15.0771 25.0026 15.0229 25.1329C14.5493 26.2803 13.929 27.532 13.1347 28.9364C12.9334 29.2955 12.7647 29.5839 12.7592 29.5839C12.7538 29.5839 12.5905 29.4859 12.3941 29.3661C11.2405 28.659 10.2178 27.7883 9.54841 26.945L9.45064 26.8253L9.94606 26.6892C11.7193 26.2049 13.227 25.6826 14.7235 25.0406C14.9358 24.9535 15.11 24.8828 15.1152 24.8828H15.1152ZM20.4911 26.7604C20.4966 26.8855 20.2191 28.0065 19.9904 28.8172C19.8001 29.4973 19.6368 30.0306 19.3385 30.9717C19.2081 31.3855 19.0939 31.7279 19.0882 31.7279C19.0642 31.7248 19.0405 31.7194 19.0175 31.7117C17.4008 31.4176 15.9543 31.0098 14.5939 30.4655C14.2129 30.3133 13.669 30.0684 13.6364 30.041C13.6254 30.0301 13.9519 29.8778 14.3665 29.6984C16.8422 28.6154 19.4105 27.3859 20.2919 26.8581C20.3962 26.7927 20.4768 26.7601 20.4932 26.7601L20.4911 26.7604ZM8.08004 27.1849C8.09076 27.1958 7.39973 28.1914 6.43124 29.5463C6.09381 30.0196 5.70112 30.5745 5.55533 30.7813C5.40953 30.9881 5.18531 31.3146 5.0599 31.5114L4.83121 31.8653L4.58635 31.6585C4.29793 31.4191 3.79751 30.9075 3.57431 30.6246C3.10652 30.0426 2.79201 29.4277 2.6658 28.8673C2.60586 28.6066 2.60586 28.4762 2.66035 28.4592C2.7417 28.4373 4.19467 28.0942 5.55483 27.7789C6.31104 27.605 7.18693 27.3982 7.50249 27.322C7.81805 27.2459 8.07406 27.1859 8.07954 27.1859L8.08004 27.1849ZM8.77631 27.4516L8.95047 27.6475C9.7341 28.5234 10.5338 29.1711 11.5023 29.7367C11.6765 29.8348 11.8071 29.9219 11.7962 29.9273C11.7581 29.9534 8.43364 31.1352 6.89383 31.6685C6.02863 31.973 5.31567 32.2179 5.3105 32.2179C5.27257 32.1969 5.23615 32.1733 5.20151 32.1472L5.10371 32.0763L5.26145 31.8479C5.7728 31.1078 6.41507 30.2971 7.81331 28.6105L8.77602 27.4511L8.77631 27.4516ZM13.1185 30.5584C13.1237 30.5529 13.3631 30.64 13.657 30.749C14.3645 31.0155 14.9249 31.1839 15.6756 31.3748C16.6007 31.6095 17.9393 31.8374 18.7281 31.9026C18.848 31.9133 18.9132 31.9243 18.8913 31.9407C18.8532 31.9626 18.0535 32.2291 17.4657 32.414C16.5298 32.7079 13.6734 33.5511 11.3445 34.2205C10.9148 34.3457 10.5448 34.449 10.5229 34.4552C10.4687 34.4662 10.2882 34.4171 10.2882 34.3952C10.2882 34.3846 10.4186 34.2158 10.5766 34.0302C11.3692 33.083 12.1068 32.091 12.7858 31.0593C12.9652 30.7871 13.1178 30.5638 13.1178 30.5586L13.1185 30.5584ZM12.1607 30.5844C12.1662 30.5899 11.7798 31.2103 11.1052 32.2765C10.8168 32.7282 10.4958 33.2398 10.3815 33.4192C10.2726 33.5934 10.1093 33.8657 10.0165 34.019L9.86003 34.2964L9.7784 34.2745C9.5823 34.2203 8.20575 33.7358 7.84118 33.589C7.4088 33.417 6.98562 33.2227 6.57335 33.0069C6.13815 32.7723 5.59421 32.4247 5.63773 32.4137C5.64842 32.4082 6.39394 32.2069 7.29176 31.962C9.6749 31.3146 10.9969 30.9391 11.8622 30.6671C12.0202 30.6181 12.1561 30.58 12.1615 30.5855L12.1607 30.5844ZM18.9349 32.1733H18.9403C18.962 32.2278 18.0798 34.6766 17.7596 35.4487C17.6889 35.6229 17.6618 35.6665 17.6237 35.661C17.5312 35.6555 16.2524 35.4761 15.4743 35.3619C14.1196 35.1551 11.8452 34.7577 11.2739 34.6273L11.1435 34.6013L11.9542 34.4163C13.6953 34.0252 14.5332 33.8124 15.382 33.5511C16.4781 33.2157 17.5492 32.8031 18.587 32.3162C18.7554 32.2398 18.8971 32.18 18.9351 32.1746L18.9349 32.1733ZM14.8923 0.000268276C14.7736 -0.0156575 12.8408 0.680858 11.5949 1.18672C9.91347 1.87227 8.60784 2.52523 7.80234 3.09029C7.50323 3.30257 7.12776 3.67807 7.06803 3.82488C7.04562 3.88392 7.03447 3.94663 7.03516 4.00977L7.76532 4.70076L9.50123 5.25595L13.6299 5.99782L18.3528 6.80852L18.4016 6.40043C18.3854 6.40043 18.3755 6.39498 18.3583 6.39498L17.7379 6.29689L17.6128 6.07397C16.9708 4.94225 16.2633 3.53829 15.8498 2.59146C15.529 1.8569 15.2239 1.00837 15.0555 0.398975C14.9629 0.0289558 14.9512 0.00782687 14.8922 0.00156906L14.8923 0.000268276ZM14.8051 0.277967H14.8106C14.8161 0.283171 14.8367 0.435714 14.8596 0.615116C14.9558 1.39493 15.1327 2.16266 15.3874 2.90593C15.5887 3.5044 15.5887 3.47181 15.3548 3.40139C14.7997 3.24885 12.3133 2.8191 10.5122 2.56878C10.2238 2.53071 9.97893 2.49264 9.97893 2.48715C9.95703 2.46553 11.2794 1.77348 11.8614 1.50253C12.6069 1.15962 14.6528 0.305354 14.8051 0.278214V0.277967ZM9.5599 2.7156L9.77214 2.78626C10.9255 3.17741 13.8257 3.73309 15.4255 3.86373C15.6049 3.88015 15.7572 3.8966 15.7627 3.8966C15.7681 3.9018 15.6158 3.98344 15.42 4.076C14.6474 4.46219 13.7986 4.93652 13.2108 5.30028C13.0369 5.40902 12.8789 5.4961 12.8572 5.4961C12.8356 5.4961 12.7211 5.47448 12.6014 5.45803L12.384 5.42544L11.8398 4.89219C10.8822 3.96178 10.1312 3.24336 9.84281 2.97139L9.5599 2.7156ZM9.34239 2.88431L10.1096 3.84207C10.5284 4.36991 10.9529 4.88671 11.0454 5.00096C11.1379 5.11522 11.2139 5.20775 11.2087 5.2132C11.1868 5.22966 10.0986 5.01738 9.52183 4.88674C8.92885 4.75062 8.68399 4.68544 8.31945 4.57121L8.01981 4.47316V4.39701C8.0253 4.03195 8.48788 3.48826 9.27148 2.93335L9.34239 2.88431ZM15.8615 4.19019C15.8834 4.19019 15.9105 4.23923 15.9757 4.38601C16.1606 4.79414 16.7377 5.89326 16.879 6.1055C16.9225 6.17617 16.9987 6.18165 16.2315 6.0565C14.3861 5.75714 13.7931 5.65884 13.7931 5.6484C13.8311 5.61585 13.8732 5.58841 13.9183 5.56677C14.5065 5.23777 15.0622 4.85359 15.5778 4.41941C15.7029 4.3151 15.8172 4.21786 15.8386 4.20169C15.844 4.19072 15.855 4.18527 15.8605 4.19072L15.8615 4.19019Z" fill="#909CA9"/>
<path d="M7.10714 3.74955C7.10714 3.74955 6.98743 3.93992 7.1019 4.22311C7.17256 4.39702 7.37935 4.6093 7.61328 4.82677C7.61328 4.82677 10.0345 7.18822 10.3283 7.52568C11.6668 9.07098 12.2491 10.5943 12.3034 12.6948C12.3362 14.0443 12.0804 15.2302 11.4429 16.6063C10.3109 19.0765 7.92252 21.8025 4.23874 24.8276L4.77747 24.6482C5.12559 24.3874 5.59911 24.1095 6.70896 23.5009C9.27146 22.0969 12.1553 20.8074 15.692 19.4793C20.7847 17.564 29.1586 15.3222 33.9251 14.5931L34.4206 14.517L34.3442 14.3973C33.9089 13.7225 33.6096 13.3037 33.2505 12.8575C32.2059 11.5623 30.9383 10.5125 29.3876 9.64177C27.2545 8.45008 24.4959 7.51967 21.0027 6.82864C20.3442 6.69828 18.897 6.44793 17.7218 6.26825C15.2296 5.88209 13.6192 5.61638 11.8455 5.31073C11.2087 5.20175 10.2566 5.03852 9.62534 4.90264C9.29885 4.83173 8.67328 4.68492 8.18359 4.5162C7.7924 4.36391 7.22575 4.2114 7.10605 3.74902L7.10714 3.74955ZM8.50977 5.11126C8.51525 5.10581 8.60209 5.13734 8.71656 5.17647C8.92334 5.24714 9.18983 5.32873 9.50564 5.41585C9.74414 5.48155 9.98352 5.54499 10.2238 5.60619C10.5502 5.68782 10.8235 5.76263 10.8277 5.76263C10.8658 5.80099 11.4155 7.55827 11.6004 8.23289C11.671 8.48868 11.7255 8.70644 11.72 8.70644C11.7145 8.71189 11.6546 8.61932 11.5839 8.49417C10.9474 7.37286 9.94112 6.23619 8.77629 5.32195C8.68249 5.25824 8.59343 5.18783 8.5098 5.11126H8.50977ZM11.1868 5.85105C11.2858 5.86058 11.384 5.87697 11.4807 5.90009C12.4056 6.10685 14.0651 6.4216 15.1261 6.60206C15.3058 6.62814 15.4471 6.66203 15.4471 6.67272C15.4471 6.68341 15.3819 6.72173 15.3001 6.76529C15.1207 6.85761 14.397 7.28683 14.1577 7.45084C13.5537 7.85345 13.0103 8.28868 12.6178 8.68036C12.4601 8.83835 12.324 8.96874 12.324 8.96874C12.324 8.96874 12.2914 8.87642 12.264 8.76195C12.0682 8.00574 11.66 6.88447 11.29 6.09591C11.249 6.01466 11.2126 5.93108 11.1813 5.8456C11.1813 5.8565 11.1813 5.85105 11.1868 5.85105ZM15.8988 6.74887C15.9314 6.7598 15.9859 6.94469 16.0946 7.35279C16.2985 8.16706 16.3863 9.00606 16.3554 9.84491C16.3444 10.0734 16.3335 10.2856 16.3225 10.313L16.3063 10.3672L16.0253 10.2744C15.443 10.0895 14.4964 9.81207 13.6857 9.58338C13.2231 9.45822 12.8476 9.34397 12.8476 9.33328C12.8476 9.30044 13.5224 8.62583 13.8108 8.37003C14.3603 7.88579 15.8511 6.73217 15.9001 6.74863L15.8988 6.74887ZM16.2743 6.80336C16.2904 6.78695 18.5267 7.17338 19.5443 7.3692C20.3005 7.51602 21.3998 7.74471 21.465 7.77185C21.4976 7.78278 21.3834 7.848 21.0189 8.01123C19.5823 8.6587 18.5156 9.24099 17.455 9.94816C17.1775 10.1333 16.9434 10.2856 16.9379 10.2856C16.9324 10.2856 16.9272 10.1278 16.9272 9.93747C16.9272 8.90353 16.7204 7.85893 16.3394 6.97756C16.3014 6.88914 16.2688 6.80755 16.2743 6.80206V6.80336ZM22.058 7.94605C22.0745 7.96222 22.0035 8.40315 21.9383 8.66418C21.7425 9.47489 21.2147 10.6775 20.5672 11.8093C20.453 12.0106 20.3495 12.1743 20.3385 12.179C20.3276 12.1837 20.1821 12.1029 20.0123 12.0051C19.381 11.6351 18.6629 11.2867 17.8793 10.9602C17.6618 10.8679 17.4712 10.7915 17.4657 10.7808C17.4276 10.7482 19.1797 9.58911 20.1046 9.03368C20.8392 8.58751 22.0364 7.92362 22.058 7.94552V7.94605ZM22.4716 8.01123C22.5206 8.01123 23.5107 8.2832 24.0276 8.43574C25.3053 8.81648 26.7755 9.35518 27.733 9.79041L28.1302 9.97006L27.8527 10.0353C25.5131 10.5727 23.5107 11.193 21.5795 11.9764C21.4231 12.0419 21.2802 12.0963 21.2694 12.0963C21.2587 12.0963 21.313 11.9712 21.3837 11.8186C21.966 10.5836 22.3412 9.29418 22.4338 8.194C22.4392 8.0897 22.4554 8.00912 22.4718 8.00912L22.4716 8.01123ZM12.6124 10.2744C12.6285 10.2582 13.385 10.4376 13.7931 10.5518C14.4132 10.726 15.7301 11.1667 15.7301 11.1993C15.7301 11.2048 15.5832 11.3297 15.4091 11.4825C14.6953 12.0737 14.0106 12.6995 13.1889 13.4945C12.9441 13.7292 12.7375 13.9191 12.7266 13.9191C12.7156 13.9191 12.7104 13.8862 12.7156 13.8427C12.8408 12.9287 12.8137 11.7534 12.6395 10.5617C12.6233 10.4095 12.6069 10.2788 12.6124 10.2744ZM28.5059 10.2908C28.5166 10.3018 28.1575 10.8676 27.9291 11.1886C27.6032 11.6564 27.1236 12.2758 26.0409 13.6362C25.4696 14.3543 24.8276 15.165 24.6153 15.437C24.3976 15.709 24.2182 15.9376 24.2127 15.9376C24.1568 15.8688 24.106 15.796 24.0604 15.7199C23.4488 14.8058 22.7063 13.9863 21.8567 13.2878C21.6935 13.1517 21.5141 13.0049 21.4541 12.9613C21.4143 12.9348 21.3778 12.9038 21.3453 12.8687C21.3453 12.8526 22.2703 12.4552 22.9722 12.1725C24.2018 11.6718 25.8777 11.0734 27.1346 10.6861C27.793 10.4793 28.495 10.278 28.5059 10.289V10.2908ZM28.9247 10.3996C28.9463 10.3941 29.077 10.4595 29.2348 10.5518C30.5571 11.308 31.852 12.2823 32.875 13.2833C33.1634 13.5663 33.8761 14.3063 33.8659 14.3118C33.8659 14.3118 33.6156 14.3334 33.322 14.3553C31.0312 14.5295 28.0986 15.0135 25.28 15.6939C25.0897 15.7371 24.921 15.7754 24.91 15.7754C24.899 15.7754 25.1113 15.5632 25.3781 15.3074C27.0321 13.7133 27.7885 12.7065 28.6806 10.9109C28.8058 10.6444 28.9153 10.4155 28.9255 10.3996H28.9247ZM16.8075 11.6392C16.8839 11.6554 17.5898 11.9873 18.1244 12.2541C18.6141 12.4987 19.3499 12.8906 19.3868 12.9232C19.3922 12.9287 19.1309 13.0646 18.8102 13.2226C17.7867 13.7339 16.9118 14.2182 15.9966 14.7731C15.7358 14.9311 15.5178 15.0617 15.5126 15.0617C15.4907 15.0617 15.4962 15.0398 15.643 14.7731C16.1327 13.881 16.5243 12.8145 16.7476 11.7743C16.7692 11.6927 16.7911 11.6384 16.8073 11.6384L16.8075 11.6392ZM16.1004 11.7696C16.1168 11.786 15.9316 12.4552 15.8174 12.82C15.5634 13.5837 15.2411 14.323 14.8544 15.0289C14.7673 15.1812 14.6367 15.4044 14.566 15.5295L14.4299 15.747L14.1253 15.4534C13.7715 15.1105 13.483 14.8983 13.1133 14.7079C12.9662 14.6317 12.8525 14.5663 12.8525 14.5556C12.8525 14.5121 13.7829 13.669 14.4954 13.0593C15.007 12.6187 16.0842 11.7534 16.1006 11.7696L16.1004 11.7696ZM20.4262 13.5491L20.6929 13.723C21.3443 14.1499 21.9711 14.6131 22.5704 15.1105C22.8805 15.3663 23.4789 15.905 23.5986 16.0355L23.6638 16.1064L23.2223 16.2315C20.7302 16.9223 18.8039 17.5372 16.5569 18.3643C16.3066 18.4569 16.0943 18.533 16.0779 18.533C16.0453 18.533 16.0182 18.5591 16.5786 18.0433C18.0151 16.7213 19.2882 15.2628 20.235 13.8427L20.4256 13.5491H20.4262ZM19.289 13.832C19.2996 13.8427 18.5544 14.8928 18.1079 15.486C17.5747 16.1937 16.6279 17.3794 15.9749 18.152C15.7029 18.4731 15.469 18.7398 15.4581 18.7453C15.4417 18.7505 15.4362 18.6689 15.4362 18.544C15.4362 17.8853 15.2677 17.1836 14.9738 16.5851C14.8487 16.3348 14.8268 16.2748 14.8542 16.2477C14.9584 16.1551 16.5408 15.2518 17.5419 14.7134C18.2167 14.3543 19.272 13.821 19.289 13.832V13.832ZM12.4111 15.5186C12.4272 15.5186 12.5524 15.5838 12.694 15.6602C13.0251 15.8406 13.3385 16.0519 13.6299 16.2913C13.6405 16.3022 13.4995 16.4164 13.3143 16.552C12.7972 16.9218 12.0139 17.515 11.5568 17.8796C11.078 18.2605 11.0613 18.2707 11.1161 18.1896C11.4752 17.6402 11.6546 17.3291 11.8462 16.9327C12.0214 16.5633 12.174 16.1835 12.3031 15.7955C12.3466 15.6391 12.4012 15.5181 12.4121 15.5181L12.4111 15.5186ZM14.2447 16.9552C14.2708 16.9497 14.3045 16.9987 14.4513 17.2159C14.7616 17.6785 15.0009 18.2989 15.0609 18.7993L15.0716 18.9083L14.3263 19.1967C12.9931 19.7135 11.7636 20.2249 10.9309 20.6048C10.6963 20.7135 10.289 20.9094 10.0225 21.04C9.7557 21.1762 9.53823 21.2794 9.53823 21.2747C9.53823 21.27 9.70666 21.1443 9.91345 20.9915C11.5406 19.811 12.9498 18.5158 14.0054 17.2209C14.1196 17.085 14.2228 16.9601 14.2338 16.9544L14.2447 16.9552ZM13.4014 17.1619C13.4231 17.1836 12.8017 17.8856 12.3785 18.3153C11.3283 19.3873 10.2884 20.2251 8.99949 21.0413C8.83626 21.1456 8.68941 21.2371 8.673 21.2481C8.63492 21.27 8.68397 21.2155 9.2498 20.6006C9.60889 20.2145 9.88086 19.888 10.1912 19.4853C10.3977 19.2186 10.436 19.1805 10.7351 18.9682C11.5351 18.3914 13.3795 17.14 13.4014 17.1619Z" fill="#A91D22"/>
<path d="M19.2827 35.9986H19.3995V35.0643H19.7083V34.9478H18.974V35.0643H19.2827V35.9986ZM19.9904 35.2967C19.9925 35.2275 19.9902 35.1583 19.9837 35.0894C19.991 35.1263 20.0019 35.1625 20.0162 35.1973L20.3748 35.9986H20.4322L20.7918 35.1903C20.8014 35.1642 20.809 35.1329 20.8252 35.0901C20.8176 35.1733 20.8176 35.2401 20.8176 35.2909V35.9984H20.9419V34.9478H20.7918L20.4666 35.6727C20.459 35.6988 20.433 35.7494 20.4168 35.8067H20.4074C20.3951 35.764 20.379 35.7225 20.3594 35.6826L20.0345 34.948H19.8661V35.9999H19.9837V35.298H19.9904L19.9904 35.2967Z" fill="#231F1F"/>
</svg>
